<?xml version="1.0" encoding="utf-8"?>
<!-- Generator: Adobe Illustrator 21.0.0, SVG Export Plug-In . SVG Version: 6.00 Build 0)  -->
<svg version="1.1" id="Art" xmlns="http://www.w3.org/2000/svg" xmlns:xlink="http://www.w3.org/1999/xlink" x="0px" y="0px"
	 viewBox="0 0 385 154.9" style="enable-background:new 0 0 385 154.9;" xml:space="preserve">
<style type="text/css">
	.st0{fill:#5F6368;}
</style>
<g>
	<path class="st0" d="M31,102c-7.1,0-13.1-2.5-18.2-7.5c-5.1-5-7.7-11-7.7-18s2.6-13,7.7-18C17.9,53.5,24,51,31,51
		c6.8,0,12.6,2.3,17.5,7l-4.9,4.9c-3.5-3.3-7.7-5-12.6-5c-5.1,0-9.4,1.8-13,5.4c-3.5,3.6-5.3,8-5.3,13.1s1.8,9.5,5.3,13.1
		s7.9,5.4,13,5.4c5.2,0,9.5-1.7,12.9-5.1c2-2,3.3-5,3.8-8.8H31v-7h23.5c0.2,1.2,0.4,2.7,0.4,4.4c0,6.8-2,12.3-6,16.3
		C44.2,99.6,38.3,102,31,102z M85.5,97.3c-3.2,3.1-7.1,4.7-11.7,4.7s-8.5-1.6-11.7-4.7s-4.8-7-4.8-11.7s1.6-8.6,4.8-11.7
		s7.1-4.7,11.7-4.7s8.5,1.6,11.7,4.7c3.2,3.1,4.8,7,4.8,11.7C90.3,90.2,88.7,94.1,85.5,97.3z M67.3,92.7c1.8,1.9,4,2.8,6.5,2.8
		s4.7-0.9,6.5-2.8s2.7-4.3,2.7-7.1c0-2.9-0.9-5.3-2.7-7.2s-4-2.8-6.6-2.8s-4.8,0.9-6.6,2.8s-2.7,4.3-2.7,7.2
		C64.5,88.4,65.4,90.8,67.3,92.7z M121.5,97.3c-3.2,3.1-7.1,4.7-11.7,4.7s-8.5-1.6-11.7-4.7s-4.8-7-4.8-11.7s1.6-8.6,4.8-11.7
		c3.2-3.1,7.1-4.7,11.7-4.7s8.5,1.6,11.7,4.7s4.8,7,4.8,11.7C126.3,90.2,124.7,94.1,121.5,97.3z M103.2,92.7c1.8,1.9,4,2.8,6.5,2.8
		s4.7-0.9,6.5-2.8s2.7-4.3,2.7-7.1c0-2.9-0.9-5.3-2.7-7.2s-4-2.8-6.6-2.8s-4.8,0.9-6.6,2.8s-2.7,4.3-2.7,7.2
		C100.5,88.4,101.4,90.8,103.2,92.7z M145.1,116.7c-3.7,0-6.7-1-9.2-2.9c-2.5-2-4.3-4.2-5.4-6.8l6.3-2.6c0.7,1.6,1.7,2.9,3.1,4.1
		s3.1,1.7,5.2,1.7c2.7,0,4.9-0.8,6.4-2.5c1.6-1.7,2.3-4,2.3-7.2v-2.4h-0.2c-2,2.5-4.9,3.7-8.7,3.7c-4.2,0-7.9-1.6-11-4.8
		c-3.2-3.2-4.7-7.1-4.7-11.6c0-4.6,1.6-8.5,4.7-11.7c3.2-3.2,6.8-4.8,11-4.8c1.9,0,3.6,0.4,5.1,1.1s2.7,1.6,3.6,2.6h0.2v-2.7h6.8
		v29.5c0,5.7-1.5,10-4.4,12.9C153.4,115.3,149.7,116.7,145.1,116.7z M145.6,95.5c2.5,0,4.6-0.9,6.3-2.8c1.7-1.9,2.5-4.2,2.5-7.1
		s-0.8-5.2-2.5-7.2c-1.7-1.9-3.8-2.9-6.3-2.9s-4.7,1-6.5,2.9s-2.7,4.3-2.7,7.2c0,2.8,0.9,5.2,2.7,7.1
		C140.9,94.6,143.1,95.5,145.6,95.5z M173,52.7V101h-7.2V52.7H173z M192.8,102c-4.6,0-8.5-1.6-11.6-4.7c-3.1-3.2-4.7-7.1-4.7-11.7
		c0-4.8,1.5-8.8,4.5-11.8c3-3.1,6.7-4.6,11-4.6c2,0,3.8,0.4,5.5,1.1s3.1,1.7,4.2,2.8c1.1,1.1,2,2.3,2.7,3.3c0.7,1.1,1.2,2.2,1.6,3.2
		l0.7,1.9l-22,9.1c1.7,3.3,4.4,5,8,5c3.3,0,6-1.5,8.1-4.5l5.6,3.7c-1.2,1.9-3,3.5-5.3,5C198.9,101.2,196.1,102,192.8,102z
		 M183.6,85.1l14.7-6.1c-0.4-1-1.2-1.9-2.3-2.5c-1.1-0.6-2.4-1-3.8-1c-2.1,0-4.1,0.9-5.9,2.6C184.4,79.8,183.5,82.1,183.6,85.1z"/>
	<path class="st0" d="M244.7,102c-6.6,0-12.1-2.2-16.5-6.7c-4.4-4.4-6.7-10-6.7-16.6s2.2-12.2,6.7-16.6c4.4-4.4,9.9-6.7,16.5-6.7
		c6.7,0,12.2,2.4,16.4,7.3l-4,3.9c-3-3.8-7.2-5.7-12.4-5.7c-4.9,0-9,1.6-12.3,4.9c-3.3,3.3-5,7.6-5,12.9s1.7,9.6,5,12.9
		s7.4,4.9,12.3,4.9c5.4,0,9.9-2.2,13.7-6.5l4,4c-2,2.4-4.6,4.4-7.7,5.8C251.6,101.3,248.3,102,244.7,102z"/>
	<path class="st0" d="M273.2,101h-5.7V56.4h5.7V101z"/>
	<path class="st0" d="M282.5,74.1c2.9-3.1,6.7-4.6,11.3-4.6c4.6,0,8.3,1.5,11.3,4.6c2.9,3.1,4.4,7,4.4,11.6s-1.5,8.5-4.4,11.6
		s-6.7,4.6-11.3,4.6c-4.6,0-8.3-1.5-11.3-4.6c-2.9-3.1-4.4-7-4.4-11.6S279.6,77.2,282.5,74.1z M286.8,93.7c2,2,4.3,3,7,3s5-1,7-3
		s3-4.7,3-8s-1-6-3-8s-4.3-3-7-3s-5,1-7,3s-3,4.7-3,8S284.8,91.7,286.8,93.7z"/>
	<path class="st0" d="M341.2,101h-5.5v-4.2h-0.2c-0.9,1.5-2.2,2.7-4,3.7s-3.7,1.5-5.7,1.5c-3.8,0-6.7-1.2-8.7-3.5s-3-5.4-3-9.3V70.5
		h5.7v17.7c0,5.7,2.5,8.5,7.5,8.5c2.4,0,4.3-1,5.8-2.9s2.2-4.1,2.2-6.6V70.5h5.7V101H341.2z"/>
	<path class="st0" d="M360.6,102c-3.9,0-7.3-1.6-10.2-4.7s-4.3-7-4.3-11.6s1.4-8.5,4.3-11.6c2.9-3.1,6.3-4.7,10.2-4.7
		c2.3,0,4.4,0.5,6.3,1.5c1.8,1,3.2,2.2,4.1,3.7h0.2l-0.2-4.2v-14h5.7V101h-5.5v-4.2H371c-0.9,1.5-2.3,2.7-4.1,3.7
		C365,101.5,362.9,102,360.6,102z M361.5,96.8c2.7,0,5-1,6.9-3s2.8-4.7,2.8-8s-0.9-6-2.8-8c-1.9-2-4.2-3-6.9-3s-4.9,1-6.8,3
		c-1.9,2-2.9,4.7-2.9,8s1,6,2.9,8C356.6,95.7,358.9,96.8,361.5,96.8z"/>
</g>
</svg>
