<?xml version="1.0" encoding="utf-8"?>
<!-- Generator: Adobe Illustrator 21.0.0, SVG Export Plug-In . SVG Version: 6.00 Build 0)  -->
<svg version="1.1" id="Art" xmlns="http://www.w3.org/2000/svg" xmlns:xlink="http://www.w3.org/1999/xlink" x="0px" y="0px"
	 viewBox="0 0 112 154.9" style="enable-background:new 0 0 112 154.9;" xml:space="preserve">
<style type="text/css">
	.st0{fill:#EA4335;}
	.st1{fill:#4285F4;}
	.st2{fill:#34A853;}
	.st3{fill:#FBBC05;}
</style>
<g>
	<g>
		<g>
			<g>
				<path class="st0" d="M68.5,60.3l2.9,0.1l7.9-7.9l0.4-3.3c-6.3-5.6-14.5-9-23.5-9c-16.3,0-30.1,11.1-34.2,26.2
					c0.9-0.6,2.7-0.2,2.7-0.2l15.7-2.6c0,0,0.8-1.3,1.2-1.3c3.6-3.9,8.8-6.4,14.5-6.4C60.8,55.9,65.1,57.5,68.5,60.3z"/>
				<path class="st1" d="M90.3,66.3c-1.8-6.8-5.6-12.7-10.7-17.2L68.4,60.3c4.5,3.6,7.3,9.1,7.3,15.3v2c5.4,0,9.8,4.4,9.8,9.8
					s-4.4,9.8-9.8,9.8H56l-2,2V111l2,2h19.7c14.1,0,25.6-11.5,25.6-25.6C101.4,78.7,97,70.9,90.3,66.3z"/>
				<path class="st2" d="M36.5,113h19.7V97.2H36.5c-1.4,0-2.8-0.3-4.1-0.9l-2.8,0.9l-7.9,7.9l-0.7,2.7C25.3,111,30.6,113,36.5,113z"
					/>
				<path class="st3" d="M36.5,61.8c-14.1,0-25.6,11.5-25.6,25.6c0,8.3,4,15.7,10.1,20.4l11.4-11.4c-3.4-1.5-5.8-5-5.8-9
					c0-5.4,4.4-9.8,9.8-9.8c4,0,7.4,2.4,9,5.8L56.8,72C52.2,65.8,44.8,61.8,36.5,61.8z"/>
			</g>
		</g>
	</g>
</g>
</svg>
